<svg width="153" height="40" viewBox="0 0 153 40" fill="none" xmlns="http://www.w3.org/2000/svg">
<path fill-rule="evenodd" clip-rule="evenodd" d="M5.42 0H0L7.73 17.64C7.79 17.77 7.98 17.77 8.04 17.64L10.61 11.57L5.42 0Z" fill="#131415"/>
<path fill-rule="evenodd" clip-rule="evenodd" d="M12.5 20.86C13.61 19.1 21.91 0 21.91 0H27.42C27.42 0 19.26 18.8 18.28 20.61C17.43 22.2 15.88 24 13.73 24H8.76999C8.74999 24 8.73999 23.99 8.73999 23.97C8.73999 23.96 8.74999 23.94 8.76999 23.94C10.35 23.69 11.21 22.91 12.5 20.86Z" fill="#131415"/>
<path fill-rule="evenodd" clip-rule="evenodd" d="M97.55 13.32H93.93V11.56H99.48V14.2V17.74H97.55L97.56 16.35C97.04 17.18 95.58 17.96 94.12 17.96C90.67 17.96 88.46 15.72 88.46 12C88.46 8.28 90.68 6 94.12 6C96.71 6 99.03 7.42 99.4 9.95H97.3C97.03 8.51 95.77 7.88 94.25 7.88C91.82 7.88 90.48 9.15 90.48 12C90.48 14.64 91.92 16.1 94.12 16.1C95.88 16.11 97.54 15.1 97.55 13.32Z" fill="#131415"/>
<path fill-rule="evenodd" clip-rule="evenodd" d="M109.89 6.27002V8.19002H103.7V10.89H109.41V12.81H103.7V15.83H109.89V17.75H101.68V6.27002H109.89Z" fill="#131415"/>
<path fill-rule="evenodd" clip-rule="evenodd" d="M44.49 15.33C44.48 15.36 44.44 15.36 44.43 15.33L40.31 6.28003H38C38 6.28003 42.24 15.89 42.67 16.6C43.08 17.3 43.59 17.88 44.46 17.88C45.34 17.88 45.84 17.3 46.25 16.6C46.67 15.88 50.92 6.28003 50.92 6.28003H48.61L44.49 15.33Z" fill="#131415"/>
<path fill-rule="evenodd" clip-rule="evenodd" d="M57.0498 6.01001C53.5498 6.01001 51.2898 8.29001 51.2898 12.01C51.2898 15.73 53.5398 18.01 57.0498 18.01C60.5498 18.01 62.8098 15.73 62.8098 12.01C62.8098 8.29001 60.5398 6.01001 57.0498 6.01001ZM57.0498 16.11C54.8098 16.11 53.3498 14.65 53.3498 12.01C53.3498 9.37001 54.8198 7.91001 57.0498 7.91001C59.2798 7.91001 60.7498 9.37001 60.7498 12.01C60.7498 14.65 59.2798 16.11 57.0498 16.11Z" fill="#131415"/>
<path fill-rule="evenodd" clip-rule="evenodd" d="M74.64 6.27002V17.75H72.27L66.74 9.36002V17.75H64.72V6.27002H67.1L72.63 14.72V6.27002H74.64Z" fill="#131415"/>
<path fill-rule="evenodd" clip-rule="evenodd" d="M83.7099 7.40989C83.3699 6.77989 82.8699 6.13989 82.0299 6.13989C81.1999 6.13989 80.6899 6.76989 80.3499 7.40989C80.0099 8.05989 75.8899 17.7399 75.8899 17.7399H77.9999L79.1799 14.9599H84.8599L86.0399 17.7399H88.1499C88.1699 17.7499 84.0599 8.05989 83.7099 7.40989ZM80.0099 13.0399L81.9999 8.34989C82.0099 8.31989 82.0499 8.31989 82.0599 8.34989L84.0499 13.0399H80.0099V13.0399Z" fill="#131415"/>
<path d="M134.673 6.27H128.85V17.75H130.794V13.6353H134.271C135.547 13.6353 136.618 13.2523 137.374 12.5354C138.081 11.8578 138.474 10.8954 138.474 9.82497C138.474 8.77419 138.11 7.89036 137.413 7.25204C136.726 6.64317 135.783 6.29946 134.673 6.27ZM136.48 9.89371C136.48 10.4731 136.264 10.9641 135.852 11.3078C135.439 11.6516 134.86 11.8283 134.163 11.8283H130.784V8.08677H134.3C134.958 8.08677 135.508 8.25371 135.891 8.56796C136.274 8.88222 136.48 9.34377 136.48 9.89371Z" fill="#131415"/>
<path d="M152.26 13.7466C152.06 13.4592 151.77 13.2412 151.38 13.0629C150.71 12.7557 149.83 12.6566 149.05 12.5674L148.98 12.5575C148.36 12.4881 147.77 12.4187 147.34 12.2602C147.13 12.1809 146.98 12.0917 146.88 11.9827C146.77 11.8638 146.72 11.7251 146.72 11.5566C146.72 11.2693 146.86 11.0413 147.14 10.8729C147.44 10.6846 147.9 10.5855 148.45 10.5855C149.64 10.5855 150.45 11.0314 150.78 11.8737L150.83 12.0125L152.34 11.4476L152.48 11.3981L152.43 11.2593C151.91 9.82248 150.48 9 148.52 9C147.44 9 146.54 9.23783 145.9 9.69366C145.24 10.1693 144.89 10.8531 144.89 11.6755C144.89 12.1413 145 12.5377 145.23 12.8647C145.43 13.152 145.72 13.38 146.1 13.5583C146.79 13.8853 147.69 13.9943 148.49 14.0934C149.12 14.1727 149.71 14.2421 150.13 14.4006C150.34 14.4799 150.5 14.5691 150.6 14.688C150.71 14.8069 150.76 14.9456 150.76 15.1141C150.76 15.4213 150.59 15.6888 150.27 15.8771C149.94 16.0753 149.46 16.1843 148.91 16.1843C147.66 16.1843 146.75 15.6492 146.41 14.7177L146.36 14.579L144.66 15.2033L144.71 15.342C145.29 16.8482 146.83 17.75 148.84 17.75C149.91 17.75 150.84 17.4924 151.51 16.9969C152.21 16.4816 152.59 15.7582 152.59 14.9159C152.61 14.47 152.49 14.0637 152.26 13.7466Z" fill="#131415"/>
<path fill-rule="evenodd" clip-rule="evenodd" d="M122.82 7.40984C122.48 6.77984 121.98 6.13984 121.14 6.13984C120.31 6.13984 119.8 6.76984 119.46 7.40984C119.12 8.05984 115 17.7398 115 17.7398H117.11L118.29 14.9598H123.97L125.15 17.7398H127.26C127.27 17.7398 123.16 8.05984 122.82 7.40984ZM119.12 13.0398L121.11 8.34984C121.12 8.31984 121.16 8.31984 121.17 8.34984L123.16 13.0398H119.12V13.0398Z" fill="#131415"/>
<path d="M142.48 6.27H140.46V17.75H142.48V6.27Z" fill="#131415"/>
<path d="M45.7601 29.6499V37.3099H44.8601L40.8701 30.8299V37.3099H40.1101V29.6499H41.0101L45.0001 36.1399V29.6499H45.7601Z" fill="#131415"/>
<path d="M52.4001 34.7299H48.3101C48.3401 35.8999 48.9101 36.7299 50.0801 36.7299C50.9501 36.7299 51.4701 36.2799 51.7201 35.6599L52.3201 35.9499C51.9501 36.7899 51.2101 37.3999 50.0401 37.3999C48.3901 37.3999 47.5801 36.2299 47.5801 34.5499C47.5801 32.7399 48.5301 31.6099 50.1001 31.6099C51.4801 31.6099 52.4001 32.4999 52.4001 34.0599V34.7299ZM48.3201 34.1099H51.6501V33.9999C51.6501 32.8299 51.0201 32.2699 50.0701 32.2699C48.9901 32.2699 48.4101 33.0499 48.3201 34.1099Z" fill="#131415"/>
<path d="M57.4501 37.32L55.8601 34.98L54.2701 37.32H53.3701L55.4001 34.44L53.4801 31.72H54.3701L55.8601 33.91L57.3501 31.72H58.2401L56.3201 34.44L58.3501 37.32H57.4501V37.32Z" fill="#131415"/>
<path d="M60.4202 31.7199V32.7599C60.7402 32.0199 61.3302 31.6099 62.2002 31.6099C63.1002 31.6099 63.6502 32.0599 63.8502 32.9299C64.1702 32.0999 64.8102 31.6099 65.8102 31.6099C67.0202 31.6099 67.6702 32.3199 67.6702 33.5099V37.3199H66.9402V33.8399C66.9402 32.8299 66.4902 32.2999 65.6402 32.2999C64.6402 32.2999 64.0502 33.0499 64.0502 34.0999V37.3199H63.3102V33.8399C63.3102 32.8399 62.8802 32.2999 62.0302 32.2999C61.0302 32.2999 60.4202 33.0399 60.4202 34.0999V37.3199H59.6902V31.7199H60.4202Z" fill="#131415"/>
<path d="M74.3901 34.4999C74.3901 36.3099 73.4201 37.3999 71.8601 37.3999C70.3101 37.3999 69.3401 36.3099 69.3401 34.4999C69.3401 32.6999 70.3101 31.5999 71.8601 31.5999C73.4201 31.6099 74.3901 32.6999 74.3901 34.4999ZM70.0701 34.4999C70.0701 35.9399 70.7401 36.7299 71.8601 36.7299C72.9801 36.7299 73.6601 35.9299 73.6601 34.4999C73.6601 33.0699 72.9901 32.2699 71.8601 32.2699C70.7501 32.2699 70.0701 33.0699 70.0701 34.4999Z" fill="#131415"/>
<path d="M79.7602 30.7099H78.9202V29.6299H79.7602V30.7099ZM79.7102 37.3099H78.9802V31.7099H79.7102V37.3099Z" fill="#131415"/>
<path d="M85.0902 33.2699C84.8902 32.5999 84.4002 32.2399 83.5802 32.2399C82.7402 32.2399 82.2702 32.6099 82.2702 33.1899C82.2702 33.9199 83.0302 34.0499 83.8602 34.1899C84.8102 34.3499 85.8602 34.5199 85.8602 35.6799C85.8602 36.7099 85.0402 37.3999 83.7802 37.3999C82.6302 37.3999 81.7002 36.8199 81.4302 35.7699L82.1202 35.5699C82.3302 36.4099 83.0002 36.7799 83.7902 36.7799C84.6202 36.7799 85.1302 36.3699 85.1302 35.7899C85.1302 35.0599 84.3602 34.9399 83.5302 34.7899C82.5802 34.6199 81.5502 34.4299 81.5502 33.2699C81.5502 32.2299 82.3802 31.6199 83.6102 31.6199C84.8402 31.6199 85.5302 32.2199 85.7502 33.0799L85.0902 33.2699Z" fill="#131415"/>
<path d="M91.1702 31.7099V32.7699C91.5102 32.0299 92.1202 31.5999 93.0602 31.5999C94.3002 31.5999 94.9702 32.3499 94.9702 33.5499V37.3099H94.2402V33.8099C94.2402 32.8399 93.8002 32.2799 92.8902 32.2799C91.8002 32.2799 91.1602 33.0899 91.1602 34.1299V37.2999H90.4302V31.6999H91.1702V31.7099Z" fill="#131415"/>
<path d="M101.7 34.4999C101.7 36.3099 100.73 37.3999 99.1701 37.3999C97.6201 37.3999 96.6501 36.3099 96.6501 34.4999C96.6501 32.6999 97.6201 31.5999 99.1701 31.5999C100.72 31.6099 101.7 32.6999 101.7 34.4999ZM97.3801 34.4999C97.3801 35.9399 98.0501 36.7299 99.1701 36.7299C100.29 36.7299 100.97 35.9299 100.97 34.4999C100.97 33.0699 100.3 32.2699 99.1701 32.2699C98.0501 32.2699 97.3801 33.0699 97.3801 34.4999Z" fill="#131415"/>
<path d="M110.41 31.72L108.74 37.32H107.97L106.54 32.79L105.11 37.32H104.34L102.67 31.72H103.44L104.74 36.44L106.16 31.72H106.93L108.35 36.44L109.65 31.72H110.41Z" fill="#131415"/>
<path d="M120.38 29.6499L117.56 37.3099H116.68L113.87 29.6499H114.68L117.13 36.3899L119.57 29.6499H120.38V29.6499Z" fill="#131415"/>
<path d="M126.19 34.4999C126.19 36.3099 125.22 37.3999 123.66 37.3999C122.1 37.3999 121.14 36.3099 121.14 34.4999C121.14 32.6999 122.11 31.5999 123.66 31.5999C125.22 31.6099 126.19 32.6999 126.19 34.4999ZM121.87 34.4999C121.87 35.9399 122.54 36.7299 123.66 36.7299C124.78 36.7299 125.46 35.9299 125.46 34.4999C125.46 33.0699 124.79 32.2699 123.66 32.2699C122.55 32.2699 121.87 33.0699 121.87 34.4999Z" fill="#131415"/>
<path d="M128.65 31.7099V32.7699C128.99 32.0299 129.6 31.5999 130.54 31.5999C131.79 31.5999 132.45 32.3499 132.45 33.5499V37.3099H131.72V33.8099C131.72 32.8399 131.28 32.2799 130.37 32.2799C129.29 32.2799 128.64 33.0899 128.64 34.1299V37.2999H127.91V31.6999H128.65V31.7099Z" fill="#131415"/>
<path d="M138.71 33.31V37.32H137.98V36.3C137.52 37.13 136.71 37.41 135.92 37.41C134.77 37.41 134.12 36.81 134.12 35.81C134.12 34.43 135.35 34.29 136.4 34.15C137.29 34.03 137.98 33.93 137.98 33.23C137.98 32.66 137.53 32.28 136.63 32.28C135.73 32.28 135.16 32.68 134.92 33.37L134.22 33.16C134.53 32.21 135.37 31.62 136.64 31.62C137.94 31.61 138.71 32.22 138.71 33.31ZM137.98 35.11V34.3C137.61 34.55 137.02 34.65 136.44 34.73C135.61 34.85 134.86 34.94 134.86 35.78C134.86 36.45 135.33 36.74 136.07 36.74C137.13 36.74 137.98 36.14 137.98 35.11Z" fill="#131415"/>
<path d="M145.4 37.1299C145.4 38.4599 144.43 39.3599 142.93 39.3599C141.65 39.3599 140.77 38.6899 140.49 37.7199L141.19 37.5199C141.41 38.2599 142.02 38.6899 142.94 38.6899C144.02 38.6899 144.67 38.0899 144.67 37.1399V35.7299C144.33 36.5799 143.63 36.9299 142.77 36.9299C141.2 36.9299 140.39 35.7899 140.39 34.2599C140.39 32.7499 141.18 31.5999 142.77 31.5999C143.6 31.5999 144.31 31.9099 144.67 32.7799V31.7099H145.41V37.1299H145.4ZM141.11 34.2699C141.11 35.4799 141.78 36.2799 142.88 36.2799C143.99 36.2799 144.65 35.4799 144.65 34.2699C144.65 33.0699 143.98 32.2699 142.88 32.2699C141.77 32.2699 141.11 33.0699 141.11 34.2699Z" fill="#131415"/>
<path d="M151.88 34.7299H147.79C147.82 35.8999 148.39 36.7299 149.56 36.7299C150.42 36.7299 150.95 36.2799 151.2 35.6599L151.8 35.9499C151.43 36.7899 150.69 37.3999 149.52 37.3999C147.87 37.3999 147.06 36.2299 147.06 34.5499C147.06 32.7399 148.01 31.6099 149.58 31.6099C150.96 31.6099 151.88 32.4999 151.88 34.0599V34.7299ZM147.8 34.1099H151.13V33.9999C151.13 32.8299 150.51 32.2699 149.55 32.2699C148.47 32.2699 147.88 33.0499 147.8 34.1099Z" fill="#131415"/>
</svg>
